# xmcd
#
# Track frame offsets: 
#        150
#        28577
#        49262
#        70077
#        86175
#        115585
#        140017
#        163475
#
# Disc length: 2536 seconds
#
# Revision: 2
# Processed by: cddbd v1.5.2PL0 Copyright (c) Steve Scherf et al.
# Submitted via: ExactAudioCopyFreeDBPlugin 1.0
#
DISCID=7109e608
DTITLE=Bob Dylan  (Robert Allen Zimmerman) - I N F I D E L S     1 9 8
DTITLE=3 
DYEAR=1983
DGENRE=Rhythm'n'Blues and Rock
TTITLE0=Jokerman  1983
TTITLE1=Sweetheart Like You  1983
TTITLE2=Neighborhood Bully  1983
TTITLE3=License To Kill  1983
TTITLE4=Man Of Peace  1983
TTITLE5=Union Sundown  1983
TTITLE6=I And I  1983
TTITLE7=Don't Fall Apart On Me Tonight  1983
EXTD=
EXTT0=
EXTT1=
EXTT2=
EXTT3=
EXTT4=
EXTT5=
EXTT6=
EXTT7=
PLAYORDER=
